<?xml version="1.0" standalone="no"?>
<!DOCTYPE svg PUBLIC "-//W3C//DTD SVG 20010904//EN"
 "http://www.w3.org/TR/2001/REC-SVG-20010904/DTD/svg10.dtd">
<svg version="1.0" xmlns="http://www.w3.org/2000/svg"
 width="5000.000000pt" height="5000.000000pt" viewBox="0 0 5000.000000 5000.000000"
 preserveAspectRatio="xMidYMid meet">
<metadata>
Created by potrace 1.11, written by Peter Selinger 2001-2013
</metadata>
<g transform="translate(0.000000,5000.000000) scale(0.100000,-0.100000)"
fill="#000000" stroke="none">
<path d="M24160 47899 c-2930 -108 -5780 -762 -8441 -1937 -699 -309 -1458
-693 -2124 -1075 -2743 -1571 -5136 -3694 -7034 -6240 -3349 -4492 -4926
-10036 -4455 -15657 389 -4645 2184 -9051 5156 -12657 2398 -2909 5470 -5186
8943 -6628 3154 -1310 6592 -1895 10040 -1710 3551 191 6969 1188 10055 2933
2248 1271 4281 2927 5993 4882 2823 3223 4683 7155 5376 11365 423 2569 408
5225 -44 7785 -731 4133 -2577 7967 -5363 11141 -781 889 -1684 1768 -2592
2520 -2023 1678 -4287 2983 -6745 3889 -322 119 -980 338 -1300 434 -1925 573
-3801 881 -5825 956 -301 11 -1332 11 -1640 -1z m1415 -1799 c1258 -37 2406
-166 3600 -405 2172 -434 4244 -1203 6195 -2297 2553 -1433 4816 -3421 6585
-5783 957 -1279 1752 -2634 2402 -4095 967 -2174 1559 -4510 1747 -6900 77
-969 86 -2030 26 -3005 -243 -3942 -1582 -7726 -3872 -10940 -694 -975 -1441
-1857 -2288 -2705 -1860 -1860 -4025 -3345 -6422 -4406 -2288 -1012 -4763
-1611 -7273 -1759 -825 -48 -1725 -48 -2550 0 -4524 267 -8834 1982 -12315
4900 -970 814 -1870 1715 -2671 2676 -2208 2650 -3729 5772 -4444 9124 -189
885 -323 1798 -394 2690 -46 569 -61 899 -68 1510 -15 1291 80 2512 293 3780
896 5320 3818 10111 8160 13381 1341 1009 2837 1876 4385 2540 2791 1197 5871
1783 8904 1694z"/>
<path d="M19075 38793 c-2333 -43 -4547 -901 -6320 -2448 -219 -192 -740 -712
-927 -927 -1236 -1418 -2022 -3077 -2323 -4898 -94 -571 -129 -1018 -129
-1635 0 -632 39 -1099 139 -1693 407 -2391 1697 -4555 3628 -6086 1449 -1148
3183 -1862 5017 -2066 525 -58 195 -54 4769 -57 l4194 -3 -8 3920 -7 3920
1863 0 c1777 0 2057 -4 2314 -30 938 -97 1820 -416 2603 -942 1234 -830 2100
-2121 2396 -3573 235 -1153 106 -2361 -367 -3425 -487 -1098 -1300 -2006
-2342 -2620 -181 -106 -539 -282 -730 -358 -507 -203 -982 -321 -1570 -389
-140 -16 -430 -17 -4262 -20 l-4113 -3 0 -2115 0 -2115 4173 3 c4511 3 4209 0
4712 53 2509 264 4809 1479 6472 3419 1160 1355 1932 2995 2228 4737 299 1760
130 3547 -492 5202 -635 1689 -1747 3193 -3203 4328 -1193 929 -2608 1580
-4085 1877 -450 90 -791 135 -1390 183 -114 9 -1591 13 -6102 15 l-5953 3 0
-2115 0 -2115 1815 0 1815 0 0 -1805 0 -1805 -1926 0 c-1227 0 -1979 4 -2072
10 -738 52 -1428 237 -2088 559 -256 125 -427 222 -644 366 -636 420 -1174
953 -1597 1584 -924 1374 -1199 3089 -752 4689 156 555 419 1127 742 1612 902
1351 2325 2250 3927 2479 405 58 105 55 4548 58 l4072 3 0 2115 0 2115 -3947
-2 c-2172 -1 -4006 -3 -4078 -5z"/>
</g>
</svg>
